# xmcd
#
# Track frame offsets:
#	150
#	17156
#	32601
#	51686
#	62488
#	79561
#	94522
#	110239
#	125870
#	144722
#	154869
#	167289
#	183014
#	197730
#	214053
#
# Disc length: 3139 seconds
#
# Revision: 0
# Processed by: cddbd v1.5.2PL0 Copyright (c) Steve Scherf et al.
# Submitted via: EasyCDDAExtractor 12.1.0.1
#
DISCID=ce0c410f
DTITLE=Various Artist - DisneyMania
DYEAR=1900
DGENRE=
TTITLE0=Anastacia - Someday My Prince Will Come
TTITLE1=A*Teens - Under The Sea
TTITLE2=Usher - You'll Be In My Heart
TTITLE3=*NSYNC - When You Wish Upon A Star
TTITLE4=Ashanti - Colors Of The Wind
TTITLE5=Smash Mouth - I Wan'na Be Like You
TTITLE6=Jessica Simpson - Part Of Your World
TTITLE7=Aaron Carter - I Just Can't Wait To Be King
TTITLE8=S-Club - Can You Feel The Love Tonight
TTITLE9=Baha Men - Hakuna Matata
TTITLE10=Hilary Duff - The Tiki Tiki Tiki Room
TTITLE11=Jump 5 - Beauty And The Beast
TTITLE12=No Secrets - Kiss The Girl
TTITLE13=Christina Aguilera - Reflection
TTITLE14=Ronan Keating - Circle Of Life
EXTD=
EXTT0=
EXTT1=
EXTT2=
EXTT3=
EXTT4=
EXTT5=
EXTT6=
EXTT7=
EXTT8=
EXTT9=
EXTT10=
EXTT11=
EXTT12=
EXTT13=
EXTT14=
PLAYORDER=
